<svg xmlns="http://www.w3.org/2000/svg" width="240" height="324" fill="none" id="man-with-turban-on-head"><path fill="#fff" fill-rule="evenodd" d="M55.968 287.806c7.05.021 13.9.263 20.969.286 28.736.096 57.737-.043 86.578-1.209 8.151-.329 10.186-.321 18.302-.832 4.793-.017 19.187-.414 18.467-6.943-.318-12.162-3.328-24.272-4.276-36.401-1.82-22.801-3.369-46.315-12.505-67.641-2.115-5.093-6.657-8.423-11.153-11.418-4.509-3.231-5.615-6.818-9.777-10.468-.88-.772-5.876-1.086-8.565-3.043-3.913-2.85-5.853-7.514-7.313-8.309-1.075-.584-1.055-4.615-3.208-6.042-2.89-1.914-12.097-3.338-15.447-3.604-3.215-.256-8.808.281-11.825 1.459-5.03 1.964-7.037 5.711-9.252 10.538-29.27 9.05-56.025 24.374-64.333 55.285-7.166 25.925-7.428 53.718-4.66 80.306.554 1.944.166 4.992 1.845 6.281-5.837.335 15.361 1.539 16.153 1.755Z" clip-rule="evenodd"></path><path fill="#000" fill-rule="evenodd" d="M189.101 262.208c-.554-.277-1.131-.593-1.763-.615-1.087-.038-1.088-1.729 0-1.691.948.033 1.782.429 2.617.846.974.486.117 1.944-.854 1.46m-1.764-47.592c.742 0 1.489.094 2.058.612.339.309.312.884 0 1.196-.333.333-.858.307-1.195 0 .11.1.001.001-.039-.021a.098.098 0 0 1-.017-.011.49.49 0 0 1-.031-.008c-.088-.022-.175-.044-.265-.06-.001.005-.188-.012-.232-.014a8.652 8.652 0 0 0-.279-.004.856.856 0 0 1-.845-.845c0-.457.389-.846.845-.845m-7.946 18.965c-.242 1.062-1.872.61-1.63-.449.351-1.54.287-3.118 0-4.664-.198-1.065 1.431-1.518 1.63-.449.344 1.854.421 3.714 0 5.562m-2.135-60.765c-1.259-.299-2.504-.335-3.791-.335-1.089-.001-1.088-1.691 0-1.691 1.436 0 2.838.062 4.24.396 1.06.251.608 1.881-.449 1.63M173.038 214l-2.19-1.096c-.974-.487-.117-1.945.853-1.46l2.19 1.096c.974.487.118 1.945-.853 1.46m-.304 33.296c-.926 1.336-2.228 2.165-3.79 2.58-1.055.279-1.5-1.352-.45-1.631 1.118-.296 2.11-.835 2.781-1.802.616-.889 2.081-.043 1.459.853m-5.84-59.53c-.25-.468-.628-.666-1.096-.677-1.087-.024-1.088-1.715 0-1.69 1.067.024 2.046.56 2.555 1.514.514.96-.946 1.813-1.459.853m-10.72 11.493c-.303.33-.89.322-1.195 0a2.839 2.839 0 0 1-.467-.658c-.047-.092-.091-.185-.142-.274a2.1 2.1 0 0 0-.075-.117l-.046-.047a.862.862 0 0 1 0-1.195c.303-.33.89-.322 1.195 0 .186.197.343.417.466.658.047.091.091.185.143.274.023.039.049.078.075.116l.046.047a.863.863 0 0 1 0 1.196m-.901 24.967a4.04 4.04 0 0 1-3.409 0c-.417-.191-.516-.793-.303-1.157.246-.422.741-.493 1.156-.303.499.228 1.204.228 1.703 0 .416-.191.907-.123 1.156.303.214.366.112.967-.303 1.157m-3.002 17.672c-.19.447-.598.685-1.075.704-.473.018-.826-.402-.845-.846-.013-.286.142-.531.364-.683l.001-.047c0-.474.387-.825.845-.846.456-.02.845.404.845.846 0 .298-.019.594-.135.872m-4.361 28.095c-1.349.021-2.667.343-4.016.365-1.089.017-1.086-1.673 0-1.691 1.349-.022 2.667-.343 4.016-.365 1.09-.018 1.087 1.673 0 1.691m-5.609-108.351c-.789.752-1.765 1.123-2.726 1.593-.975.476-1.831-.982-.854-1.46.815-.398 1.717-.692 2.385-1.328.788-.751 1.985.443 1.195 1.195m-2.119 19.489c-.554-.277-1.131-.593-1.764-.615-1.086-.038-1.088-1.729 0-1.691.949.033 1.782.429 2.617.846.975.486.118 1.944-.853 1.46m-10.16 78.217c-.25-.469-.627-.666-1.095-.677-1.088-.025-1.089-1.716 0-1.691 1.066.025 2.045.561 2.555 1.515.513.96-.947 1.813-1.46.853m-3.518-36.716c-.337-.308-.313-.882 0-1.195l1.095-1.096c.334-.334.858-.309 1.195 0 .336.309.313.883 0 1.196l-1.095 1.095c-.335.335-.858.31-1.195 0m-4.149 57.221c-1.219-.028-2.362-.378-3.51-.76-1.029-.343-.585-1.975.449-1.631.998.332 2 .676 3.061.701 1.088.025 1.088 1.716 0 1.69m-5.476-36.156c-1.101-.03-2.015-.592-2.788-1.343-.781-.76.415-1.955 1.195-1.196.443.43.953.831 1.593.848 1.087.031 1.088 1.721 0 1.691m3.4-46.497c.014.45.204.933.483 1.229.747.791-.447 1.988-1.195 1.195-.617-.654-.952-1.529-.978-2.424-.031-1.09 1.659-1.085 1.69 0m-12.891-36.825c-.354-.692-.818-1.505-1.523-1.888-.957-.519-.103-1.979.854-1.46.958.521 1.644 1.546 2.128 2.495.494.968-.965 1.823-1.459.853m-2.191 17.584a4.955 4.955 0 0 1-1.16-.181c-.161-.044-.321-.094-.483-.138-.069-.019-.363-.056-.183-.046-.457-.025-.845-.367-.845-.846 0-.439.389-.869.845-.845.628.034 1.198.348 1.826.365 1.087.031 1.088 1.722 0 1.691m-5.476 27.026h-1.826c-1.089 0-1.087-1.691 0-1.691h1.826c1.089 0 1.087 1.691 0 1.691m-2.13 74.753c-.553.277-1.205.539-1.653.963-.791.748-1.988-.446-1.196-1.195.571-.54 1.302-.88 1.997-1.228.41-.205.913-.112 1.156.303.22.376.105.953-.303 1.157m-4.079-21.363a1.646 1.646 0 0 0-.217-.044c-.287-.038-.588-.025-.877-.025-1.089-.001-1.087-1.692 0-1.691.858.001 1.75.013 2.423.613.342.305.31.886 0 1.195-.335.336-.854.304-1.195 0 .036.033-.087-.035-.134-.048m-1.093-28.732c.245-.507.25-.837.25-1.4 0-1.089 1.69-1.088 1.69 0 0 .818-.122 1.513-.48 2.253-.2.413-.786.52-1.157.304-.415-.243-.502-.747-.303-1.157m-4.887-39.662c-.98.333-1.856.806-2.719 1.376-.911.601-1.757-.864-.853-1.46a13.504 13.504 0 0 1 3.122-1.547c1.034-.351 1.474 1.282.45 1.631m-5.7-28.456c-.729.02-1.48.299-2.13.615-.975.473-1.83-.985-.853-1.46.928-.451 1.942-.817 2.982-.846 1.09-.031 1.086 1.66 0 1.691m-2.555 75.964c-.287.013-.532-.142-.683-.365l-.047-.001c-.474 0-.825-.387-.846-.845-.02-.456.404-.846.846-.845.298 0 .594.018.871.135.448.189.686.598.704 1.075.018.474-.402.826-.845.846m-4.156-58.464c-1.038.339-1.48-1.294-.45-1.631 1.208-.395 2.443-.701 3.651-1.096 1.038-.339 1.479 1.294.45 1.631-1.209.395-2.444.701-3.651 1.096m-3.79 31.913c-.323 1.038-1.954.592-1.63-.45.311-1.005.333-2.017.334-3.062 0-1.09 1.69-1.088 1.69 0 0 1.189-.04 2.367-.395 3.512m-11.3 38.224a.86.86 0 0 1-.832.744c-.445.02-.861-.403-.845-.845a1.644 1.644 0 0 1 1.575-1.576c.473-.018.825.401.845.845.02.432-.34.769-.743.832m-5.718-48.59c-.894.298-1.848.582-2.548 1.244-.791.746-1.988-.447-1.195-1.196.923-.872 2.11-1.283 3.293-1.678 1.036-.346 1.476 1.287.45 1.63m-3.876 32.846c-.245.42-.743.495-1.156.303-.554-.258-1.166-.249-1.764-.25-1.09-.001-1.088-1.691 0-1.69.922 0 1.772.087 2.617.48.416.194.517.791.303 1.157m-2.19 39.861c-.473.018-.825-.401-.845-.845-.02-.432.34-.769.743-.832a.859.859 0 0 1 .832-.744c.445-.02.861.403.845.846a1.644 1.644 0 0 1-1.575 1.575m153.977 6.394c-.287-1.034-.944-1.869-1.44-2.799-.167-.313-.225-.508-.315-.738a.766.766 0 0 1-.718.431c-.686 0-1.489-.044-2.129.249-.417.191-.907.123-1.156-.303-.214-.366-.112-.966.303-1.157.944-.432 1.958-.48 2.982-.48.253 0 .444.093.579.233.392-5.36.382-10.724.012-16.088-.395-5.731-1.304-11.349-2.254-17.007-.461-2.743-1.059-5.514-.942-8.308.116-2.775 1.305-5.362.462-8.145-.338-1.116-.917-2.139-1.293-3.243-.403-1.187-.367-2.36-.184-3.59.379-2.505 1.006-4.98.002-7.425-.443-1.084-1.162-2.052-1.508-3.173-.431-1.392-.372-2.933-.444-4.377-.145-2.912-.183-5.843-.424-8.75-.108-1.301-.342-2.536-.877-3.73-.514-1.15-1.276-2.196-1.616-3.415-.338-1.201-.368-2.467-.549-3.695a23.832 23.832 0 0 0-.89-3.823c-1.551-4.827-4.392-9.164-7.749-12.924-3.569-3.997-7.834-7.006-12.361-9.811l-7.141-4.424a.815.815 0 0 1-.566.644c-.893.298-1.847.582-2.547 1.243-.791.747-1.988-.447-1.195-1.195.826-.781 1.866-1.192 2.923-1.554-1.084-.683-2.179-1.391-3.403-1.786-1.071-.346-2.651-.044-3.52-.83-.682-.62-.897-1.767-1.159-2.608-.328-1.045-.611-2.146-1.027-3.16a6.011 6.011 0 0 0-1.215-1.896c-.228-.879-.646-1.682-1.386-2.17-1.935-1.281-4.312-.009-5.163 1.817-.704-.002-1.445.152-2.13.195a64.736 64.736 0 0 1-4.225.124 63.771 63.771 0 0 1-8.25-.553c-4.889-.656-9.632-1.977-14.438-3.006a1.55 1.55 0 0 0-.097-.19c-1.035-1.737-3.615-1.444-5.24-.786-.697.281-1.407.636-1.806 1.295-.423.286-.788.632-1.031.998-.503.754-.892 2.276-1.912 2.403-.672.082-1.354-.047-2.037.051-.853.118-1.618.418-2.406.76-6 2.606-12.203 5.504-18.714 6.514-1.527.237-3.082.482-4.41 1.338-1.077.695-1.91 1.651-2.798 2.557-.867.884-1.58 1.275-2.817 1.433-1.5.193-2.799.607-3.895 1.698-.911.906-1.505 2.064-2.219 3.117-.727 1.074-1.793 1.678-2.9 2.302-2.618 1.475-5.056 3.257-7.18 5.393-4.472 4.506-7.18 10.297-9.91 15.94-2.951 6.104-5.71 12.282-7.624 18.8-1.877 6.4-2.992 12.983-3.508 19.628-.543 6.972-.619 13.972-1.07 20.949-.227 3.485-.398 6.975-.571 10.462-.17 3.445-.416 6.896-.376 10.346.076 6.668 1.409 13.357 3.74 19.6a71.95 71.95 0 0 0 1.911 4.595c.602 1.325 2.662 1.177 3.309 0 .148-.271.264-.55.361-.833 1.69.015 3.397-.116 5.077.04 2.966.277 5.938.431 8.913.615 5.886.366 11.782.609 17.67.945.572.033 1.143.065 1.714.099-4.196-12.992-3.652-27.038-4.316-40.55-.053-1.089 1.638-1.083 1.69 0 .667 13.57.1 27.652 4.444 40.665 1.685.115 3.368.254 5.046.458 1.356.163 2.719.355 4.088.288 1.553-.074 3.07-.429 4.585-.738 2.752-.56 5.404-.306 8.167.038 2.956.37 5.922.575 8.897.704 11.911.522 23.902.997 35.809.201 2.882-.193 5.758-.463 8.62-.831 2.949-.378 5.867-1.014 8.814-1.376 2.905-.355 5.576.619 8.447.799 2.928.184 5.934-.427 8.835-.778a880.97 880.97 0 0 1 2.841-.337c-1.22-8.364-1.913-16.791-2.587-25.215-.087-1.087 1.604-1.077 1.69 0 .668 8.358 1.346 16.722 2.564 25.021 5.023-.585 10.051-1.176 15.022-2.087 1.415-.258 2.822-.679 3.669-1.943.628-.936.754-2.084.452-3.161" clip-rule="evenodd"></path><path fill="#fff" fill-rule="evenodd" d="M176.592 92.054c-1.933-10.546-6.7-20.581-14.021-28.433-.845-.932-1.604-2.402-2.893-2.638-1.294-2.637-3.761-4.502-5.732-6.632-4.304-4.293-8.422-9.09-13.973-11.8-25.747-10.594-50.524 19.611-55.781 42.327-5.223 18.269.481 43.47 23.112 44.209 3.202 4.236 7.62 7.169 12.159 9.788 6.197 3.969 12.958 5.58 20.128 3.371 7.14 1.867 14.542-4.123 18.834-9.376 3.392-4.069 5.716-9.036 8.819-13.248 3.663-.091 6.828-3.194 7.318-6.83 3.421-6.29 3.266-13.826 2.03-20.738Z" clip-rule="evenodd"></path><path fill="#000" fill-rule="evenodd" d="M120.511 38.962c4.684-1.095 9.597-.868 14.238.335 9.197 2.386 16.765 8.59 23.04 15.506a85.586 85.586 0 0 1 14.855 22.81l.186.425c2.608 5.939 4.874 12.111 4.971 18.65.084 5.629-.485 11.492-2.302 16.845-1.619 4.769-4.598 9.574-9.721 10.717-2.955 7.513-8.735 14.019-16.017 17.501-4.516 2.159-9.475 3.123-14.468 2.644-5.095-.489-9.853-2.938-13.834-6.06-.11-.086.031-.252.144-.187 4.793 2.763 10.462 3.751 15.953 3.569 9.022-.298 17.294-5.17 22.047-12.828 1.183-1.906 2.237-3.916 3.077-6.007a1.922 1.922 0 0 1 .774-2.143c.237-.739.446-1.487.621-2.243.396-1.712.617-3.449.75-5.201.108-1.422.048-2.931.191-4.39a75.97 75.97 0 0 0-.23-3.503c-.341-3.755-1.03-7.5-2.357-11.04-1.345-3.585-3.469-6.746-6.148-9.468-5.747-5.836-12.902-10.097-18.49-16.093l-.293-.317-.02-.006c-.693.711-1.386 1.422-2.081 2.132l-3.175 3.24c-6.479 6.618-12.906 13.301-18.543 20.666-3.246 4.241-6.162 8.687-8.674 13.401a80.772 80.772 0 0 0-3.244 6.856l-.384.93c-.456 1.112-.95 2.357-1.224 3.613.815.809 1.412 1.998 2.071 2.917.749 1.042 1.611 2.033 2.499 2.959.899.937 1.884 1.835 2.93 2.604l.126.091c1.2.852 2.578 1.441 2.758 3.063.079.704-.551 1.271-1.134 1.49-1.596.6-3.249-1.122-4.312-2.113a18.86 18.86 0 0 1-1.838-1.987c-.551.078-1.105.118-1.653.053-.849-.101-1.69-.25-2.518-.467-6.864-1.803-11.944-7.503-14.685-13.852-3.68-8.523-3.594-18.347-2.065-27.36 2.796-16.47 11.843-31.852 25.503-41.59 3.826-2.727 8.069-5.086 12.676-6.162Zm7.395 2.203c-8.825-.465-16.871 4.087-23.326 9.755-11.754 10.318-18.994 25.425-20.45 40.939-.774 8.242-.195 17.127 4.101 24.409 1.667 2.826 3.814 5.288 6.348 7.364 2.388 1.956 5.11 3.084 8.02 3.851a16.763 16.763 0 0 1-2.055-3.702.105.105 0 0 1-.159-.013c-1.837-2.522-1.262-5.53-.386-8.302.918-2.908 2.081-5.738 3.409-8.483 4.84-10.002 12.039-18.717 19.511-26.848 3.816-4.153 7.759-8.186 11.688-12.232a579.405 579.405 0 0 0 5.85-6.097c.961-1.02 1.917-2.046 2.864-3.08.936-1.022 1.779-2.105 2.944-2.87.93-.61 1.858.556 1.423 1.423-.668 1.334-1.817 2.392-2.833 3.477l-.105.112a307.012 307.012 0 0 1-2.998 3.188 487.08 487.08 0 0 1-3.494 3.623c.998-.115 2.008-.182 3-.332 1.347-.205 2.676-.506 3.998-.834a29.097 29.097 0 0 0 4.096-1.334c1.247-.514 2.426-1.339 3.798-1.42 1.161-.068 1.524 1.37.881 2.128-.887 1.043-2.482 1.454-3.779 1.841l-.183.055a30.139 30.139 0 0 1-4.385.986c-1.952.29-4.208.422-6.296.126 4.17 2.446 8.008 5.478 11.834 8.434l.676.521c3.738 2.878 7.387 5.98 10.053 9.917 2.489 3.676 3.991 7.955 4.834 12.291.416 2.139.691 4.301.875 6.472.686 1.924.576 4.212.403 6.329l-.061.731.004.214c.026 1.324.558 4.272-.695 5.271-.021.107-.041.214-.063.32.156-.096.31-.195.462-.297.063-.042.124-.088.185-.134l.174-.142.016-.014c.389-.342.76-.698 1.106-1.083.638-.712 1.245-1.617 1.82-2.659 1.264-2.291 2.071-4.782 2.696-7.357 1.141-4.708 1.612-9.764 1.091-14.593a16.3 16.3 0 0 0-.453-2.385 81.8 81.8 0 0 0-7.062-17.775c-4.108-7.617-9.394-14.659-15.727-20.569-6.414-5.984-14.732-10.752-23.65-11.222Zm-12.445 24.337c.318-.194.645.183.487.488-.764 1.475-2.049 2.72-3.116 3.984a648.639 648.639 0 0 0-3.297 3.943 205.925 205.925 0 0 0-6.492 8.208l-.552.74c-1.837 2.466-3.651 4.971-5.257 7.592a40.616 40.616 0 0 0-2.252 4.25c-.64 1.39-.935 3.067-1.704 4.373-.049.082-.199.076-.217-.028-.251-1.406.369-3.1.812-4.416.526-1.566 1.276-3.057 2.078-4.498 1.674-3.004 3.68-5.82 5.694-8.603a158.33 158.33 0 0 1 6.399-8.276 107.451 107.451 0 0 1 3.22-3.707l.414-.453c1.155-1.253 2.319-2.703 3.783-3.597Zm-5.351-4.368c.523-.388.97.405.636.825-1.994 2.51-4.263 4.765-6.446 7.105a104.57 104.57 0 0 0-5.99 7.003c-3.853 4.942-6.938 10.365-9.551 16.049-.05.107-.205.027-.181-.077 1.384-6.147 4.62-11.73 8.304-16.776l.14-.19c3.726-5.074 8.01-10.173 13.088-13.939Z" clip-rule="evenodd"></path><path fill="#000" fill-rule="evenodd" d="M149.373 128.003c-1.351.011-2.869-.496-3.884-.893l-.265-.105c-.878-.352-1.781-.756-2.454-1.434-.215-.22-.444-.47-.56-.732-.069-.154-.097-.313-.031-.471.243-.024.474-.055.692-.095.104-.019.204-.038.28-.039.282-.002.561.034.839.069l.121.015c.217.027.432.056.647.085.626.084 1.249.168 1.884.198.459.022.94-.004 1.425-.03 1.258-.069 2.559-.162 3.528.72.254.23.36.521.36.818 0 .36-.151.726-.382 1.014-.523.651-1.329.873-2.2.88Zm7.363-11.354c-.588.882-1.567 1.449-2.908 1.387-2.665-.121-5.846-1.127-8.079-2.582-.581-.379-.958-.984-1.026-1.633l-.12-1.154-.65.961-.204.3c-.188.275-.376.55-.554.832a37.097 37.097 0 0 0-1.872 3.322c-.402.812-.695 1.721-.989 2.637-.497 1.547-.977 3.068-2.039 4.155-.16.165-.407.224-.633.195-.199-.026-.394-.124-.489-.318-1.269-2.58.437-5.689 1.821-7.851l.146-.226c1.284-1.953 3.379-4.538 5.779-4.889l.275.438.399-.266c.654-.436 1.516-.416 2.271-.075l.755.341c1.406.631 2.792 1.213 4.313 1.532a13.863 13.863 0 0 0 .647.118 27.957 27.957 0 0 0-.071-.309c-.026-.109-.052-.219-.08-.327a11.81 11.81 0 0 0-.09-.336 14.77 14.77 0 0 0-.422-1.314c-.614-1.619-1.595-3.133-2.549-4.577l-.112-.17c-.137-.207-.287-.422-.441-.646-.744-1.071-1.569-2.234-1.628-3.402.988.062 1.814.676 2.541 1.21a19.364 19.364 0 0 1 2.763 2.482c1.627 1.766 3.088 4.024 3.729 6.358.366 1.336.205 2.774-.483 3.807Zm-26.042-13.315v-.047c.002-1.348.787-4.425 2.727-4.425 1.211 0 1.947 2.094 2.074 4.253l.005.088c.056 1.342-.312 4.276-2.079 4.276-1.786 0-2.709-2.779-2.727-4.145Zm28.554-.422v-.048c-.003-1.348-.787-4.425-2.727-4.425-1.181 0-1.91 1.991-2.064 4.091l-.011.162c-.076 1.297.268 4.364 2.075 4.364 1.786 0 2.708-2.779 2.727-4.144Zm-22.022-8.699c-.257.03-.513.07-.769.11-.745.12-1.487.262-2.224.428a44.212 44.212 0 0 0-4.148 1.166c-1.274.422-2.528.9-3.782 1.376l-.201.076c-.443.169-.884.358-1.326.547-.674.288-1.351.578-2.041.797 1.819-2.517 4.622-4.381 7.32-5.715 1.539-.762 3.171-1.376 4.814-1.879l.914-.274c1.347-.398 2.819-.765 4.085.028.5.313.819.8.92 1.327a1.906 1.906 0 0 1-.371 1.533c-.31.402-.698.632-1.11.71-.454.087-.936-.008-1.375-.242-.352-.027-.455-.017-.559-.006l-.147.018Zm20.26.256a11.063 11.063 0 0 0-2.719-.246 9.451 9.451 0 0 0-1.226.142c-.627.101-1.251.205-1.926.083-.352-.064-.652-.27-.884-.54a2.244 2.244 0 0 1-.508-1.098c-.059-.395 0-.74.146-1.045.173-.36.463-.664.814-.93 1.063-.805 2.887-.611 4.141-.449 1.24.162 2.473.546 3.568 1.157a8.638 8.638 0 0 1 2.755 2.407c.618.837.909 1.8 1.21 2.78-1.415-1.187-3.579-1.872-5.371-2.26Z" clip-rule="evenodd"></path><path fill="#000" fill-rule="evenodd" d="M129.449 129.599c1.71-4.009 5.444-6.955 9.742-8.033 3.156-.788 6.469-.763 9.686-.45 1.686.163 3.494.296 5.083.923 1.357.535 2.462 1.546 3.294 2.733.989 1.407 1.662 3.017 2.135 4.667.067.235.13.471.189.709-.206 1.245-.642 2.305-1.795 3.088-1.125.764-2.467 1.077-3.805 1.188a6.217 6.217 0 0 1-.375-.194c-2.085-1.195-3.552-4.017-6.184-3.635-2.349.341-3.895 3.298-5.292 5.031-4.483.523-8.963-.825-12.611-3.39a7.426 7.426 0 0 1-.067-2.637m33.176-3.041a17.37 17.37 0 0 0-1.346-2.901 16.498 16.498 0 0 0-7.714-6.843c-7.631-3.268-17.505-.964-23.668 4.397-2.105 1.833-4.234 4.526-4.878 7.423a1.075 1.075 0 0 0-.523.279c-4.453-2.805-9.038-5.503-12.626-9.39-2.606-2.825-4.418-6.168-5.528-9.841-.091-.302-.578-.258-.563.077l.012.234c-.046-.144-.265-.07-.282.07-.597 4.462-1.344 9.193-.656 13.679.411 2.676 1.626 4.635 3.251 6.751 1.741 2.268 3.711 4.377 5.726 6.4 1.279 1.284 2.614 2.765 4.18 3.707 1.821 1.094 3.886 1.925 5.829 2.769a75.6 75.6 0 0 0 6.028 2.347c4.087 1.384 8.311 2.34 12.609 2.759 3.441.334 7.374.698 10.672-.597 2.527-.992 4.567-2.786 6.186-4.944 1.761-2.351 3.154-5.029 3.924-7.852.8-2.933-.465-8.052-.633-8.524" clip-rule="evenodd"></path><path fill="#000" fill-rule="evenodd" d="M159.889 92.148c4.959 0 7.789 1.067 8.826 1.15l.031.003c.431.027.818.063 1.224.22 1.493.575 1.736 2.142.865 3.129-.061 2.042.207 4.429-.253 6.478-.569 8.638-4.629 10.095-6.938 10.627-1.159.268-2.532.374-3.763.092a11.857 11.857 0 0 1-5.952-1.881c-2.474-1.596-4.311-4.05-4.908-6.961-.282-1.388-.414-2.832-.26-4.243l.022-.194c-.804-.385-1.736-.458-2.696-.492a16.98 16.98 0 0 0-1.351-.011c-.429.048-.853.111-1.279.198a3.368 3.368 0 0 0-1.309.739l-.028.535a27.492 27.492 0 0 1-.522 3.99c-.4 1.935-1.042 3.784-2.41 5.157a7.744 7.744 0 0 1-1.732 1.844c-2.527 1.946-5.96 2.661-9.111 2.392-6.396-.546-10.093-5.626-10.946-7.797l-.05-.132c-.616-1.614-1.107-3.708-3.052-4.055l-.413-.075c-.888-.166-1.707-.398-2.227-1.265a2.711 2.711 0 0 1-.374-1.232c-.304.023-.607.046-.909.067-2.411.51-16.867.943-18.021.943 0 0-2.218.933-3.154.21-.65-.503-.863-1.174-.506-1.934.54-1.143 3.027-1.83 4.131-2.048 0 0 17.824.148 19.107-.095.793-.82 2.213-.707 3.399-.837.982-.7 2.356-1.17 3.442-1.483.221-.084.44-.165.653-.242 1.989-.708 4.057-1.084 6.157-1.285 2.165-.206 4.336-.113 6.489.182a29.05 29.05 0 0 1 2.698.49c1.597.21 3.186.558 4.784.97l.32.083c1.683.441 3.412.823 5.154.524 1.419-.242 2.783-.788 4.091-1.379l.17-.077c2.875-1.314 7.366-2.305 10.601-2.305Zm-25.293 4.803c-1.061-.234-1.514 1.403-.45 1.637.754.166 1.392.546 1.824 1.19l.045.07c.58.922 2.044.07 1.461-.857a4.538 4.538 0 0 0-2.88-2.04Zm31.074-1.015c-.374-.263-.94-.068-1.157.305-.239.41-.082.867.268 1.135l.036.026c.321.227.634.633.673 1.049l.004.052c.042 1.089 1.734 1.094 1.691 0-.041-1.07-.661-1.965-1.515-2.567Z" clip-rule="evenodd"></path></svg>